<?xml version="1.0" encoding="utf-8"?>
<!-- Generator: Adobe Illustrator 21.1.0, SVG Export Plug-In . SVG Version: 6.00 Build 0)  -->
<svg version="1.1" id="Layer_1" xmlns="http://www.w3.org/2000/svg" xmlns:xlink="http://www.w3.org/1999/xlink" x="0px" y="0px"
	 viewBox="0 0 409.5 277.5" style="enable-background:new 0 0 409.5 277.5;" xml:space="preserve">
<style type="text/css">
	.st0{fill:none;}
	.st1{fill:#FFFFFF;}
	.st2{fill:#FFF000;}
</style>
<rect x="0" y="0" class="st0" width="409.5" height="277.5"/>
<g>
	<g>
		<path class="st1" d="M19.6,141.3V99.9h-6.3V93h21.1v6.9h-6.5v15.8h24V99.9h-6.5V93h21.1v6.9h-6.3v41.3h6.3v6.9H45.4v-6.9h6.5
			v-18.7h-24v18.7h6.5v6.9H13.3v-6.9H19.6z"/>
		<path class="st1" d="M111.3,130.9H79.1c0.5,3.5,1.9,6.4,4.2,8.6c2.3,2.2,5.3,3.3,8.9,3.3c5.3,0,9.4-2.1,12.5-6.3l6.7,2.9
			c-2.2,3.4-5,5.8-8.4,7.5c-3.5,1.6-7.1,2.4-10.9,2.4c-5.9,0-10.9-1.8-15-5.5c-4.2-3.7-6.2-8.6-6.2-14.8c0-5.9,2-10.7,6.1-14.5
			c4.1-3.8,8.7-5.7,14-5.7c5.2,0,9.8,1.9,14,5.6C109,118,111.2,123.5,111.3,130.9z M103.6,125.4c-0.5-2.7-1.9-5.1-4.2-7.3
			c-2.3-2.2-5.1-3.3-8.4-3.3c-3,0-5.6,1-7.7,3c-2.1,2-3.5,4.5-3.9,7.6H103.6z"/>
		<path class="st1" d="M122.2,141.5v-25h-5.9v-6.7h13.5v31.7h5.9v6.7h-19.4v-6.7H122.2z M121.1,96.8c0-1.2,0.4-2.3,1.3-3.2
			c0.9-0.9,1.9-1.3,3.3-1.3c1.2,0,2.3,0.4,3.2,1.3c0.9,0.9,1.3,1.9,1.3,3.2c0,1.3-0.4,2.3-1.3,3.2c-0.9,0.9-2,1.3-3.2,1.3
			c-1.3,0-2.3-0.4-3.2-1.3C121.5,99.1,121.1,98,121.1,96.8z"/>
		<path class="st1" d="M144.9,141.5V99.7h-6.8V93h14.4v48.4h5.9v6.7h-20.2v-6.7H144.9z"/>
		<path class="st1" d="M166.3,148.2v-9.8h9.8v9.8H166.3z"/>
		<path class="st1" d="M193.2,148.7l-14-48.8h-6.6V93h21.1v6.9H187l10.4,36.1l10-36.1h-6.6V93h25.3v6.9h-6.5l10.1,36.1L240,99.9
			h-6.6V93h20.3v6.9h-6.5l-13.8,48.8h-7.9l-12.4-43.6l-12.3,43.6H193.2z"/>
		<path class="st1" d="M248.7,129c0-5.9,2-10.8,5.9-14.6c3.9-3.8,8.7-5.7,14.3-5.7c5.5,0,10.3,1.9,14.2,5.6c4,3.7,5.9,8.6,5.9,14.6
			c0,6-2,10.9-5.9,14.7c-4,3.8-8.7,5.6-14.3,5.6c-5.7,0-10.5-1.9-14.4-5.7C250.6,139.8,248.7,134.9,248.7,129z M256.6,129
			c0,3.8,1.2,6.9,3.5,9.3c2.4,2.4,5.3,3.6,8.7,3.6c3.5,0,6.4-1.2,8.7-3.7c2.3-2.4,3.5-5.5,3.5-9.3c0-3.8-1.2-6.9-3.6-9.3
			c-2.4-2.4-5.3-3.7-8.6-3.7c-3.5,0-6.5,1.2-8.8,3.7C257.8,122.2,256.6,125.3,256.6,129z"/>
		<path class="st1" d="M300.8,141.5v-25h-7.7v-6.7h13.8v8.6c0.8-2.2,2-4.1,3.5-5.6c1.5-1.5,3.1-2.5,4.8-2.9c1.7-0.5,4-0.7,6.9-0.7h2
			v7.6h-1.5c-3.8,0-6.7,0.4-8.6,1.1c-1.9,0.8-3.3,2.2-4.2,4.2c-0.9,2-1.4,5.6-1.4,10.9v8.4h8.4v6.7h-23.6v-6.7H300.8z"/>
		<path class="st1" d="M331.2,141.5V99.7h-6.8V93h14.4v48.4h5.9v6.7h-20.2v-6.7H331.2z"/>
		<path class="st1" d="M396.1,141.5v6.7h-14.4v-5.6c-3.8,4.2-8.3,6.3-13.7,6.3c-5,0-9.4-1.7-13.2-5.1c-3.8-3.4-5.7-8.3-5.7-14.5
			c0-6.3,1.9-11.3,5.8-14.9c3.9-3.6,8.3-5.5,13.2-5.5c5.2,0,9.7,2.1,13.6,6.2V99.7h-7.4V93h14.9v48.4H396.1z M357.2,128.9
			c0,4.2,1.2,7.5,3.6,9.8c2.4,2.3,5.3,3.4,8.6,3.4c3.2,0,6.1-1.2,8.6-3.6c2.5-2.4,3.7-5.7,3.7-9.9c0-4.3-1.3-7.5-3.8-9.6
			c-2.6-2.2-5.4-3.3-8.6-3.3c-3.4,0-6.3,1.3-8.6,3.8C358.4,122.1,357.2,125.2,357.2,128.9z"/>
	</g>
	<g>
		<path class="st2" d="M300.7,170.8c1-0.5,1.7-1.2,2.3-2.1c0.6-1,0.9-2.2,0.9-3.5c0-1.7-0.5-3.1-1.6-4.4c-1-1.2-2.3-2-3.7-2.3
			c-1.3-0.3-3.4-0.4-6.1-0.4h-9.9v3.8h3.6v19.6h-3.6v3.8h10.1c2.2,0,4-0.1,5.3-0.3c1.3-0.2,2.5-0.6,3.6-1.2c1.1-0.6,2-1.5,2.7-2.6
			c0.7-1.1,1-2.4,1-3.7c0-1.6-0.5-3-1.4-4.2C303.2,172.1,302.1,171.3,300.7,170.8z M297.9,168.2c-0.8,0.6-2.2,1-4.3,1h-2.5v-7.4h2.5
			c3.6,0,5.4,1.2,5.4,3.6C299,166.6,298.7,167.6,297.9,168.2z M291.1,172.9h2.3c1.7,0,3.1,0.1,4,0.3c0.9,0.2,1.7,0.7,2.2,1.4
			c0.6,0.7,0.9,1.5,0.9,2.5c0,1.1-0.3,2-0.9,2.7c-0.6,0.7-1.4,1.1-2.3,1.3c-1,0.2-2.6,0.3-4.7,0.3h-1.4V172.9z"/>
		<polygon class="st2" points="307.5,161.8 311.3,161.8 311.3,181.5 307.5,181.5 307.5,185.3 332.1,185.3 332.1,176.6 328.1,176.6 
			328.1,181.5 316.1,181.5 316.1,173.1 326.9,173.1 326.9,169.4 316.1,169.4 316.1,161.8 328.1,161.8 328.1,166.5 332.1,166.5 
			332.1,158 307.5,158 		"/>
		<polygon class="st2" points="357.3,166.6 357.3,158 333.2,158 333.2,166.6 337.3,166.6 337.3,161.8 342.8,161.8 342.8,181.5 
			339.1,181.5 339.1,185.3 351.5,185.3 351.5,181.5 347.7,181.5 347.7,161.8 353.2,161.8 353.2,166.6 		"/>
		<path class="st2" d="M383.2,181.5l-9.5-23.3l-0.1-0.1h-10.3v3.5h3.4l-7.8,20h-3.6v3.8h11.9v-3.8H364l2.1-5.6h10.2l2,5.6h-3.5v3.8
			h11.9v-3.8H383.2z M371.1,161.5L371.1,161.5l3.8,10.8h-7.7L371.1,161.5z"/>
	</g>
</g>
</svg>
